<svg xmlns="http://www.w3.org/2000/svg" width="40" height="92" fill="none"><path fill="#fff" d="m19.749 25 4.551 3.385a2.6 2.6 0 0 1-1.628.878v8.4c-.042.25-2.38 1.045-3.841 1.045h-.752v-2.55h-7.432v1.881c0 .293-1.336 1.255-3.591 1.255H6.3V31.98a17.76 17.76 0 0 1-5.506 6.187l-.418-.418C4.218 32.022 4.551 24.874 4.551 19.1v-6.35A33 33 0 0 1 .334 15.3L0 14.924A39.6 39.6 0 0 0 9.395 0l6.764 1.38c-.167.5-.543.753-1.628.919 14.279 2.592 9.311 11.12 5.511 8.277a16.2 16.2 0 0 0-5.929-7.859A38 38 0 0 1 8.56 9.448h5.01l2.087-2.675s2.422 1.839 3.883 3.177c-.125.46-.543.67-1.127.67H8.142l-.167-.627a38 38 0 0 1-2.464 2.048l4.175 1.547h7.6l2.13-2.341 4.551 3.386a3.23 3.23 0 0 1-1.712.919v8.318c-.041.251-2.338 1.087-3.8 1.087H17.7V23.7H8.727a29 29 0 0 1-.376 2.55l2.839 1.087h6.471zM17.7 22.532v-3.26H8.977q0 1.505-.125 3.261zm-8.723-7.775V18.1H17.7v-3.343zm9.1 20.191v-6.437h-7.43v6.438zM30.1 29.1c0 .46-1.837 1.3-3.424 1.3h-.793V3.637l5.637.544c-.084.544-.418.92-1.42 1.087zm9.4-27.636c-.125.627-.542 1.045-1.545 1.17v31.227c0 3.261-.668 5.1-5.887 5.6a5.85 5.85 0 0 0-.96-3.3 5.4 5.4 0 0 0-3.549-1.547v-.586s4.133.251 5.011.251c.668 0 .877-.209.877-.753V.836zM12.151 65.441c-.126.376-.5.668-1.295.836v23.87c-.084.376-2.088 1.421-4.008 1.421h-.919V69.705a33.7 33.7 0 0 1-5.386 5.016l-.5-.376c3.716-5.226 7.6-13.712 9.686-22.072l6.639 2.219c-.209.544-.752.878-1.67.836a60.6 60.6 0 0 1-4.843 9.28zm15.658-3.01v7.734h3.34l2.547-3.344s2.882 2.3 4.676 3.888c-.125.459-.584.669-1.169.669h-9.394v7.9h3.59l2.8-3.637s3.09 2.467 5.01 4.139c-.125.459-.584.669-1.211.669H27.809v9.782c0 .293-1.545 1.3-4.134 1.3h-.918v-29.1h-1a37.6 37.6 0 0 1-9.353 9.949l-.459-.334a67.5 67.5 0 0 0 8.6-19.732l6.722 2.383c-.209.544-.752.878-1.712.794a55 55 0 0 1-3.09 5.811h9.812l2.755-3.595s3.09 2.424 4.969 4.055c-.125.46-.584.669-1.169.669z"/></svg>